<?xml version="1.0" standalone="no"?>
<!DOCTYPE svg PUBLIC "-//W3C//DTD SVG 20010904//EN"
 "http://www.w3.org/TR/2001/REC-SVG-20010904/DTD/svg10.dtd">
<svg version="1.0" xmlns="http://www.w3.org/2000/svg"
 width="500.000000pt" height="500.000000pt" viewBox="0 0 500.000000 500.000000"
 preserveAspectRatio="xMidYMid meet">

<g transform="translate(0.000000,500.000000) scale(0.100000,-0.100000)"
fill="#000000" stroke="none">
<path d="M3320 3976 c0 -11 30 -39 36 -34 2 3 -5 13 -16 23 -11 10 -20 15 -20
11z"/>
<path d="M3779 3857 c-14 -5 -33 -23 -42 -39 -15 -26 -22 -29 -54 -26 -21 1
-38 -2 -37 -7 1 -6 -6 -15 -14 -21 -14 -10 -11 -14 16 -28 39 -20 55 -20 98 0
40 19 67 63 62 102 -3 25 -6 27 -29 19z"/>
<path d="M1760 3832 c-29 -9 -50 -35 -50 -61 0 -39 26 -71 58 -71 36 0 49 10
61 44 19 48 -24 103 -69 88z m34 -47 c8 -22 -4 -45 -24 -45 -20 0 -36 33 -25
50 9 15 42 12 49 -5z"/>
<path d="M2772 3736 c-14 -39 -85 -81 -118 -70 -18 5 -18 5 0 -10 12 -9 39
-16 64 -16 29 0 54 -7 75 -22 l32 -23 -23 29 c-16 21 -19 32 -12 41 14 16 16
83 4 95 -7 7 -14 -2 -22 -24z"/>
<path d="M1590 3709 c0 -10 -64 -41 -77 -37 -5 1 -19 -5 -33 -14 -27 -17 -85
-36 -62 -20 11 7 11 10 -2 15 -9 4 -15 1 -13 -6 1 -7 -6 -11 -15 -11 -10 1
-18 -3 -18 -8 0 -6 -7 -8 -15 -4 -8 3 -15 0 -15 -7 0 -8 -4 -6 -10 3 -5 8 -10
10 -10 4 0 -5 13 -23 30 -39 24 -23 41 -29 87 -32 91 -6 140 35 158 130 4 20
4 37 1 37 -3 0 -6 -5 -6 -11z"/>
<path d="M3866 3685 c-19 -19 -21 -46 -4 -63 19 -19 45 -14 62 10 13 19 14 25
2 43 -18 26 -40 30 -60 10z"/>
<path d="M2220 3645 c0 -26 -45 -64 -68 -58 -48 12 -24 -41 33 -75 17 -10 18
-13 5 -22 -14 -10 -33 -9 -94 6 -27 6 -45 -5 -46 -30 0 -12 117 -126 123 -119
3 2 8 -19 12 -46 7 -55 10 -58 31 -37 7 8 19 16 26 19 10 4 10 7 -1 18 -9 9
-11 9 -7 2 4 -7 3 -13 -1 -13 -7 0 -10 88 -4 97 0 1 22 -4 48 -12 25 -8 51
-11 56 -8 6 4 8 -2 5 -15 -4 -15 -2 -19 8 -15 8 3 11 10 7 16 -4 6 0 8 10 4 9
-3 19 -2 21 2 3 5 28 11 56 15 l51 7 -42 47 c-41 47 -80 114 -105 182 -8 24
-13 28 -14 15 -1 -20 -39 -108 -40 -91 0 5 -7 3 -15 -4 -12 -10 -15 -7 -21 14
-3 13 -3 29 0 35 7 10 -18 81 -28 81 -4 0 -6 -7 -6 -15z m170 -165 c0 -5 -2
-10 -4 -10 -3 0 -8 5 -11 10 -3 6 -1 10 4 10 6 0 11 -4 11 -10z"/>
<path d="M3374 3604 c16 -72 -53 -150 -123 -140 -19 3 -47 18 -63 32 -15 15
-28 23 -28 17 0 -5 9 -18 20 -28 11 -10 20 -23 20 -30 0 -6 18 -18 39 -25 30
-10 47 -10 72 -1 29 10 37 9 59 -7 33 -25 68 -88 55 -101 -6 -5 -83 -11 -172
-12 -107 -2 -163 -7 -163 -14 0 -15 29 -55 41 -55 41 0 208 -233 235 -328 25
-92 24 -91 51 -35 15 31 34 55 46 59 12 4 34 15 50 26 19 13 51 21 105 25 66
5 80 10 104 34 30 29 36 49 15 49 -7 0 -14 12 -15 27 -2 26 -40 93 -54 93 -3
0 -4 -9 -1 -20 3 -11 -2 -31 -11 -45 -13 -20 -25 -25 -56 -25 -21 0 -42 5 -45
10 -4 6 -11 7 -17 4 -7 -4 -8 -2 -4 4 4 7 3 12 -3 12 -7 0 -7 10 0 29 11 32
48 61 77 61 13 0 21 12 30 45 16 61 15 78 -6 92 -15 9 -19 26 -20 84 -1 40 -4
74 -6 76 -10 10 -57 -12 -92 -42 -21 -18 -43 -31 -49 -27 -5 4 -19 5 -30 4
-12 -2 -16 0 -9 5 7 5 10 24 7 48 -2 22 -5 46 -5 53 -1 6 -15 27 -31 45 l-29
32 6 -31z m171 -354 c-8 -13 -66 -43 -71 -37 -4 4 44 33 74 46 2 0 0 -4 -3 -9z"/>
<path d="M2829 3595 c-1 -6 -2 -26 -3 -45 l-1 -35 -147 -3 c-110 -2 -148 -6
-148 -15 0 -18 29 -57 43 -57 7 0 30 -5 51 -11 27 -8 35 -13 26 -19 -8 -5 21
-10 71 -12 46 -2 90 1 97 6 11 8 16 2 14 -15 -1 -4 8 -5 18 -2 11 3 20 0 20
-6 0 -17 31 0 39 22 12 32 -6 93 -44 150 -19 28 -36 47 -36 42z"/>
<path d="M1312 3418 c-38 -38 12 -114 57 -86 30 18 35 45 17 73 -18 27 -54 33
-74 13z"/>
<path d="M3908 3373 c-18 -18 -38 -27 -61 -27 -37 -1 -40 -18 -6 -36 35 -19
66 -11 93 24 46 61 26 91 -26 39z"/>
<path d="M1987 3383 c-4 -3 -7 -20 -7 -37 0 -42 -22 -70 -78 -103 -26 -14 -54
-32 -62 -39 -12 -10 -28 -3 -87 37 -40 26 -73 45 -73 41 0 -18 63 -82 81 -82
11 0 18 -4 15 -9 -3 -4 9 -16 27 -26 27 -14 38 -15 55 -6 11 6 30 11 42 11 32
0 80 -56 80 -92 l0 -29 -169 3 c-111 2 -167 0 -163 -7 4 -5 8 -18 9 -27 2 -15
-5 -18 -45 -18 -46 1 -46 1 -22 15 15 9 19 14 10 15 -12 0 -12 2 -2 9 11 6 9
9 -6 13 -12 3 -29 25 -41 51 -26 56 -39 65 -46 34 -6 -22 -10 -24 -41 -17 -31
7 -34 6 -34 -16 0 -31 -41 -59 -67 -45 -11 5 -25 6 -33 1 -8 -5 -17 -7 -21 -4
-4 2 -10 -3 -13 -12 -10 -26 58 -75 120 -87 20 -4 50 1 83 13 58 23 148 26
197 8 30 -10 31 -13 16 -24 -16 -12 -15 -13 3 -14 17 0 17 -2 5 -10 -13 -8
-12 -10 3 -10 16 0 21 -16 20 -57 -1 -7 3 -13 8 -13 20 0 8 -45 -16 -56 -30
-14 -41 -6 -17 13 15 13 15 13 -6 3 -18 -9 -20 -14 -12 -30 5 -10 10 -37 10
-60 0 -56 -50 -110 -101 -110 -39 0 -93 30 -109 60 -9 17 -14 19 -26 9 -8 -6
-14 -8 -14 -3 0 5 -7 0 -15 -10 -8 -11 -15 -16 -15 -12 0 4 -7 1 -15 -6 -39
-35 -50 -41 -74 -43 -14 -1 -35 -5 -45 -10 -13 -6 -17 -5 -12 3 3 6 2 13 -4
17 -24 15 5 -127 40 -195 43 -84 159 -200 200 -200 7 0 29 17 50 38 20 21 59
50 86 63 45 22 59 24 187 22 126 -1 138 0 133 15 -60 184 -75 291 -57 412 6
41 14 83 17 94 4 12 2 16 -5 12 -8 -5 -11 7 -10 38 2 33 7 46 20 49 24 6 72
86 72 119 0 17 4 25 11 20 6 -3 3 6 -6 20 -12 18 -14 29 -7 33 6 4 8 13 5 21
-3 8 -2 14 3 14 14 0 31 50 31 93 0 59 -40 123 -63 100z m-514 -737 c-10 -13
-19 -23 -21 -21 -5 5 22 45 31 45 4 0 0 -11 -10 -24z m154 -70 c90 -1 114 -14
138 -70 22 -52 17 -54 -155 -55 -87 -1 -165 2 -174 5 -21 8 -20 26 2 66 10 18
17 40 15 48 -3 11 -2 12 4 3 10 -14 53 -6 53 9 0 6 7 7 18 2 9 -4 54 -8 99 -8z"/>
<path d="M3934 3205 c-8 -21 2 -45 19 -45 20 0 40 27 33 45 -7 19 -45 20 -52
0z"/>
<path d="M3967 3035 c6 -18 5 -18 -10 -6 -15 12 -17 12 -11 -4 5 -13 4 -16 -4
-11 -7 4 -12 4 -12 -1 0 -4 -11 -13 -25 -20 -14 -6 -23 -7 -19 -2 7 12 -7 11
-26 -1 -24 -15 16 -50 57 -50 59 0 91 53 58 96 -15 19 -15 19 -8 -1z"/>
<path d="M3210 2965 c0 -8 4 -15 10 -15 5 0 7 7 4 15 -4 8 -8 15 -10 15 -2 0
-4 -7 -4 -15z"/>
<path d="M3230 2931 c0 -7 -6 -9 -12 -6 -7 4 -6 1 2 -7 8 -7 22 -22 30 -33 15
-20 14 -20 -8 -1 -12 11 -22 15 -22 10 0 -20 -69 -55 -110 -57 -23 -1 -37 -3
-31 -5 27 -9 6 -17 -41 -15 -29 1 -44 -1 -33 -4 40 -10 35 -20 -6 -13 -49 9
-118 2 -98 -11 7 -4 -14 -8 -47 -8 -50 0 -63 4 -88 27 l-30 27 22 -29 c60 -79
-4 -206 -104 -206 -36 0 -51 6 -82 35 l-38 34 -22 -22 c-13 -13 -22 -16 -22
-9 0 7 -4 11 -9 7 -5 -3 -12 3 -15 13 -4 10 -18 29 -31 42 l-25 23 0 -47 c0
-79 -67 -125 -135 -93 l-34 16 22 -37 c12 -20 31 -48 43 -61 12 -13 21 -29 20
-35 -2 -6 -1 -8 1 -3 7 11 31 9 38 -3 4 -6 1 -17 -5 -26 -10 -11 -16 -12 -26
-3 -9 8 -14 8 -14 1 0 -23 -133 -40 -158 -20 -13 11 -15 10 -9 -5 5 -14 3 -16
-11 -10 -28 13 -67 8 -64 -7 15 -64 123 -188 220 -251 204 -134 451 -151 657
-47 61 32 166 115 207 165 53 64 106 175 124 263 21 101 15 252 -15 340 -22
64 -41 97 -41 71z m-270 -141 c-20 -13 -33 -13 -25 0 3 6 14 10 23 10 15 0 15
-2 2 -10z m107 -41 c17 -19 23 -40 23 -72 0 -38 -5 -49 -31 -71 -40 -34 -93
-35 -134 -2 -27 22 -30 30 -31 84 0 38 4 60 10 59 6 -1 10 4 8 11 -1 8 1 11 6
8 4 -2 14 0 22 5 8 5 35 8 60 7 35 -2 50 -8 67 -29z m-527 -103 c0 -3 -4 -8
-10 -11 -5 -3 -10 -1 -10 4 0 6 5 11 10 11 6 0 10 -2 10 -4z m233 -103 c34
-17 67 -69 67 -105 l0 -28 -190 0 -190 0 0 28 c0 15 9 40 19 56 11 17 18 33
15 38 -3 4 1 5 9 2 8 -3 18 0 23 7 5 8 3 10 -6 4 -8 -5 -11 -4 -7 2 11 17 226
13 260 -4z m-632 -159 c12 -15 11 -16 -9 -10 -18 6 -21 4 -16 -11 5 -17 5 -17
-6 1 -10 15 -9 20 1 27 8 5 15 9 15 9 1 0 8 -7 15 -16z"/>
<path d="M3805 2618 c-19 -60 -102 -92 -170 -64 -13 5 -9 -3 13 -23 30 -29 37
-31 96 -29 57 3 64 6 74 28 18 41 24 77 17 99 -9 30 -19 26 -30 -11z"/>
<path d="M3395 2533 c-17 -118 -120 -308 -215 -397 -82 -77 -190 -141 -277
-165 -43 -11 -82 -27 -88 -34 -69 -89 -128 -157 -138 -157 -7 0 -30 22 -50 49
-67 87 -119 129 -173 137 -91 13 -182 62 -300 161 -51 43 -76 48 -49 9 8 -11
15 -35 15 -53 0 -32 1 -33 43 -33 32 0 49 -6 63 -21 10 -12 39 -35 64 -52 55
-38 93 -79 126 -135 26 -44 25 -62 -5 -62 -10 0 -26 -9 -36 -20 -22 -25 -52
-26 -60 -2 -3 9 -16 29 -28 45 l-23 27 3 -32 c5 -41 -25 -91 -67 -113 -39 -20
-91 -8 -132 31 l-28 28 0 -26 c0 -15 7 -34 16 -42 10 -11 11 -16 3 -16 -7 0
-10 -3 -6 -6 9 -9 84 -17 145 -15 48 2 56 -1 87 -32 22 -22 35 -45 35 -61 l0
-26 -171 0 -172 0 6 40 c3 23 1 38 -4 34 -5 -3 -9 0 -9 5 0 6 5 11 12 11 25 0
-4 13 -31 14 -18 1 -27 -3 -24 -11 3 -7 1 -17 -3 -24 -5 -9 -11 -7 -22 7 -10
13 -16 15 -19 7 -3 -7 -11 -13 -20 -13 -24 0 -5 -39 51 -103 62 -71 94 -92
198 -127 58 -20 87 -25 106 -19 15 4 56 18 92 30 l64 22 39 -44 c21 -24 35
-36 31 -27 -3 10 7 41 25 75 37 71 51 127 51 213 0 86 -23 235 -39 254 -11 13
-10 17 3 22 28 11 77 -17 103 -60 15 -22 32 -47 40 -54 7 -7 13 -16 13 -20 0
-4 29 -7 65 -7 36 0 65 2 65 6 0 3 16 23 36 44 20 22 42 52 50 66 19 37 46 28
110 -35 40 -41 54 -64 67 -112 9 -33 17 -79 17 -102 l0 -41 35 6 c22 4 52 -1
81 -12 36 -14 50 -25 63 -56 10 -22 22 -35 27 -30 5 4 34 13 65 20 67 14 157
66 216 123 61 60 93 126 107 221 11 73 14 82 31 78 70 -13 125 -12 153 3 60
31 101 108 88 162 -6 23 -10 25 -39 18 -18 -4 -37 -7 -42 -7 -6 0 -12 -14 -13
-31 -3 -38 -28 -66 -59 -66 -32 0 -63 17 -63 35 0 9 -18 19 -45 26 -40 10 -45
14 -45 40 0 15 5 31 10 34 6 3 10 12 10 18 -1 7 -10 1 -20 -12 -11 -13 -20
-18 -20 -12 0 6 -4 11 -9 11 -5 0 -35 18 -67 39 -33 22 -72 43 -87 46 -19 5
-25 11 -18 19 5 6 11 41 13 78 2 36 5 65 8 63 12 -7 0 124 -14 157 -4 9 -5 22
-1 28 3 5 2 10 -3 10 -5 0 -13 -21 -17 -47z m-37 -478 c40 -16 72 -58 72 -95
0 -34 -28 -78 -60 -95 -69 -35 -137 -8 -159 64 -16 55 5 106 51 126 42 18 50
18 96 0z m83 -268 c28 -19 49 -56 49 -87 0 -19 -8 -20 -175 -20 -175 0 -175 0
-175 23 1 32 22 65 55 87 39 26 206 24 246 -3z"/>
<path d="M2050 2440 c0 -5 5 -10 11 -10 5 0 7 -5 3 -12 -4 -7 -3 -8 5 -4 9 6
9 11 0 22 -14 17 -19 18 -19 4z"/>
<path d="M3868 2410 l4 -30 -161 0 c-128 0 -161 -3 -161 -13 0 -17 28 -43 58
-51 12 -4 22 -12 22 -17 0 -5 11 -9 23 -9 13 0 33 -8 45 -18 21 -18 21 -19 1
-32 -33 -25 -24 -40 17 -28 44 12 86 5 139 -23 22 -12 34 -15 28 -8 -21 21
-15 37 27 83 24 26 36 46 29 48 -7 2 -13 13 -14 24 -3 34 -17 69 -36 87 -24
23 -26 22 -21 -13z"/>
<path d="M3910 2196 c-27 -33 18 -72 48 -42 13 13 14 20 6 34 -15 23 -38 26
-54 8z"/>
<path d="M1390 2150 c-12 -7 -12 -10 -1 -10 7 0 11 -6 7 -15 -7 -18 5 -20 22
-3 28 28 6 50 -28 28z"/>
<path d="M1936 2085 c-8 -40 -37 -70 -146 -151 l-75 -55 -6 28 c-6 24 -7 25
-8 5 0 -13 -5 -21 -10 -17 -6 3 -6 -8 -1 -27 8 -27 15 -77 22 -145 1 -12 33
-27 80 -37 26 -6 27 -5 22 23 -10 51 15 142 55 195 42 57 129 117 195 136 56
15 59 26 9 23 -36 -1 -71 14 -101 44 -21 21 -29 16 -36 -22z"/>
<path d="M1700 2006 c0 -2 8 -10 18 -17 15 -13 16 -12 3 4 -13 16 -21 21 -21
13z"/>
<path d="M1487 1760 c8 -9 9 -19 3 -30 -5 -10 -7 -28 -4 -41 16 -67 16 -77 -5
-98 -43 -43 -116 -18 -135 46 -5 14 -12 20 -22 16 -7 -3 -14 0 -14 6 0 6 -5
11 -11 11 -8 0 -10 -15 -6 -46 3 -34 13 -54 37 -79 57 -59 125 -58 191 2 37
33 39 39 39 93 0 61 -20 99 -63 121 -18 9 -20 9 -10 -1z"/>
<path d="M3885 1761 c-3 -5 0 -13 6 -17 8 -4 7 -9 -2 -16 -10 -6 -7 -8 11 -6
32 4 43 48 11 48 -11 0 -22 -4 -26 -9z"/>
<path d="M2801 1615 c-16 -45 -59 -68 -116 -63 -34 2 -41 0 -33 -9 8 -9 7 -13
-3 -14 -8 0 -3 -5 11 -11 14 -5 50 -7 81 -4 49 5 61 2 85 -16 20 -16 25 -17
15 -5 -9 12 -14 39 -13 75 3 73 -10 94 -27 47z"/>
<path d="M3816 1605 c-3 -9 -19 -15 -43 -16 l-38 -1 30 -9 c38 -11 55 -34 55
-76 0 -36 -21 -53 -65 -53 -35 0 -79 44 -72 73 5 20 5 20 -7 5 -10 -13 -15
-15 -24 -6 -9 9 -12 9 -13 -2 -1 -8 -5 -4 -9 10 -7 22 -8 20 -9 -15 -1 -47 24
-101 59 -127 19 -14 47 -19 107 -21 l81 -3 6 45 c20 137 20 139 -5 176 -26 37
-43 44 -53 20z"/>
<path d="M3740 1515 c0 -9 5 -15 11 -13 6 2 11 8 11 13 0 5 -5 11 -11 13 -6 2
-11 -4 -11 -13z"/>
<path d="M2863 1441 c10 -27 9 -33 -3 -41 -8 -5 -82 -10 -163 -10 -164 0 -169
-3 -100 -53 41 -29 88 -44 172 -54 31 -4 40 -8 30 -14 -19 -13 32 -1 91 20 32
12 46 23 48 38 4 27 -28 91 -62 122 l-25 24 12 -32z"/>
<path d="M1732 1444 c-18 -7 -43 -13 -54 -11 -29 3 -34 -19 -8 -33 28 -15 78
-3 91 21 16 31 7 39 -29 23z"/>
<path d="M3230 1441 c0 -5 -13 -8 -29 -6 -24 3 -31 -1 -41 -24 -8 -20 -24 -32
-58 -43 -26 -8 -46 -20 -44 -26 1 -7 -1 -11 -5 -11 -20 3 -24 -2 -13 -16 8
-10 30 -15 63 -15 59 0 110 27 125 68 20 51 23 70 12 77 -5 3 -10 2 -10 -4z"/>
<path d="M3444 1408 c-12 -19 -11 -62 0 -70 37 -26 79 19 57 61 -13 23 -45 28
-57 9z"/>
<path d="M1498 1399 c-39 -22 -9 -76 36 -65 29 7 36 23 25 54 -9 23 -33 28
-61 11z"/>
<path d="M2957 1341 c-3 -14 0 -17 14 -14 22 6 25 19 5 26 -8 3 -16 -2 -19
-12z"/>
<path d="M1810 1328 c0 -23 18 -41 34 -35 9 4 16 16 16 27 0 15 -7 20 -25 20
-14 0 -25 -6 -25 -12z"/>
</g>
</svg>
